HIERARCHY
ROOT Hips
{
	OFFSET 0.000000 0.000000 0.000000
	CHANNELS 6 Xposition Yposition Zposition Zrotation Yrotation Xrotation 
	JOINT LHipJoint
	{
		OFFSET 0.000000 0.000000 0.000000
		CHANNELS 3 Zrotation Yrotation Xrotation
		JOINT LeftUpLeg
		{
			OFFSET 1.363060 -1.794630 0.839290
			CHANNELS 3 Zrotation Yrotation Xrotation
			JOINT LeftLeg
			{
				OFFSET 2.448110 -6.726130 0.000000
				CHANNELS 3 Zrotation Yrotation Xrotation
				JOINT LeftFoot
				{
					OFFSET 2.562200 -7.039590 0.000000
					CHANNELS 3 Zrotation Yrotation Xrotation
					JOINT LeftToeBase
					{
						OFFSET 0.157640 -0.433110 2.322550
						CHANNELS 3 Zrotation Yrotation Xrotation
						End Site
						{
							OFFSET 0.000000 0.000000 0.000000
						}
					}
				}
			}
		}
	}
	JOINT RHipJoint
	{
		OFFSET 0.000000 0.000000 0.000000
		CHANNELS 3 Zrotation Yrotation Xrotation
		JOINT RightUpLeg
		{
			OFFSET -1.305520 -1.794630 0.839290
			CHANNELS 3 Zrotation Yrotation Xrotation
			JOINT RightLeg
			{
				OFFSET -2.542530 -6.985550 0.000000
				CHANNELS 3 Zrotation Yrotation Xrotation
				JOINT RightFoot
				{
					OFFSET -2.568260 -7.056230 0.000000
					CHANNELS 3 Zrotation Yrotation Xrotation
					JOINT RightToeBase
					{
						OFFSET -0.164730 -0.452590 2.363150
						CHANNELS 3 Zrotation Yrotation Xrotation
						End Site
						{
							OFFSET 0.000000 0.000000 0.000000
						}
					}
				}
			}
		}
	}
}
MOTION
Frames: 28
Frame Time: 0.008333
-11.796426 17.247318 0.339567 152.030440 86.196299 154.192306 -10.956912 5.648493 1.029565 0.093452 9.895790 7.003044 -0.238916 2.078466 27.239739 0.893385 -4.612973 24.742339 -2.789900 0.000000 -78.386901 9.777046 -0.897556 2.103916 7.751375 -4.692292 -20.483704 1.704155 0.105506 11.713898 -2.078010 -10.534106 -1.863263 -1.935500 -0.000000 -28.028200
-11.631934 17.249798 0.374622 153.902097 86.332491 156.003350 -11.068057 5.621983 0.972324 0.742375 10.448836 5.994311 -0.120434 2.120117 29.358044 1.023645 -4.696614 26.027339 -2.995300 0.000001 -75.172300 9.739857 -0.964252 2.088394 8.056080 -4.570510 -20.245256 1.697770 0.028869 12.617726 -2.097041 -10.536564 -2.262696 -1.842600 -0.000000 -26.518600
-11.471035 17.251303 0.409556 155.666200 86.472771 157.704038 -11.168466 5.576256 0.895890 1.332060 11.014209 4.916591 -0.014775 2.162349 31.567662 1.155424 -4.442242 27.032077 -3.002200 0.000000 -71.308000 9.705998 -1.021401 2.063944 8.352573 -4.466194 -19.983806 1.694540 -0.042450 13.509169 -2.112620 -10.499316 -2.754241 -1.723800 -0.000000 -24.949200
-11.313700 17.251895 0.444626 157.224341 86.603613 159.193034 -11.254480 5.513121 0.801993 1.840000 11.567340 3.788266 0.078917 2.209692 33.834546 1.284362 -3.802060 27.694778 -2.768200 -0.000000 -67.034599 9.677766 -1.068849 2.028939 8.626644 -4.389537 -19.679573 1.693595 -0.106157 14.357263 -2.125570 -10.428663 -3.329509 -1.582500 -0.000000 -23.369200
-11.159721 17.251805 0.479698 158.633558 86.718727 160.528900 -11.326606 5.435051 0.693655 2.264051 12.093977 2.614224 0.162996 2.265454 36.127978 1.408536 -2.770813 27.978183 -2.286000 -0.000000 -62.612100 9.653910 -1.107655 1.985211 8.879357 -4.336552 -19.315209 1.694890 -0.158647 15.123583 -2.139268 -10.346039 -3.972384 -1.426500 -0.000000 -21.806900
-11.008735 17.251336 0.514787 159.902795 86.810624 161.721285 -11.385087 5.344630 0.575121 2.599586 12.578830 1.403321 0.239978 2.331291 38.411195 1.527426 -1.374890 27.863141 -1.578500 -0.000000 -58.295100 9.633963 -1.139003 1.933500 9.109544 -4.310214 -18.879658 1.698274 -0.197670 15.778357 -2.155804 -10.266447 -4.663046 -1.262100 0.000000 -20.304900
-10.860388 17.250864 0.549797 161.047207 86.874331 162.785834 -11.430834 5.244331 0.451470 2.844846 13.009877 0.164148 0.311874 2.406959 40.644834 1.641724 0.329195 27.351361 -0.697500 0.000000 -54.302300 9.617256 -1.164342 1.874646 9.317192 -4.314630 -18.367797 1.703631 -0.221840 16.298922 -2.176560 -10.201796 -5.378859 -1.095400 0.000000 -18.905200
-10.714254 17.250768 0.584732 162.057637 86.906527 163.714620 -11.464760 5.136393 0.327202 3.000272 13.381826 -1.095069 0.379573 2.490718 42.791497 1.752146 2.260644 26.456682 0.284700 0.000000 -50.736900 9.603553 -1.185352 1.809493 9.502011 -4.354702 -17.780925 1.710702 -0.230960 16.672292 -2.201792 -10.158506 -6.095888 -0.931500 -0.000000 -17.653400
-10.569875 17.251445 0.619500 162.923962 86.907807 164.498155 -11.487885 5.022768 0.206400 3.069240 13.695187 -2.365804 0.442775 2.579518 44.814306 1.859407 4.326639 25.208741 1.287000 0.000000 -47.625300 9.592668 -1.203982 1.739373 9.664588 -4.433380 -17.123823 1.719115 -0.225649 16.892720 -2.230915 -10.139425 -6.789575 -0.774899 0.000000 -16.589800
-10.426839 17.253234 0.654074 163.599749 86.880562 165.090528 -11.500379 4.904985 0.092631 3.053440 13.953188 -3.636977 0.500229 2.669085 46.676485 1.964218 6.435429 23.656413 2.233300 -0.000000 -44.993401 9.585672 -1.222171 1.665225 9.801876 -4.555655 -16.405796 1.728404 -0.207711 16.964261 -2.261598 -10.138754 -7.436904 -0.629200 -0.000001 -15.753800
-10.284753 17.256384 0.688263 164.119407 86.835185 165.528700 -11.504155 4.784449 -0.012812 2.965074 14.170870 -4.903934 0.549298 2.755845 48.352603 2.065651 8.493849 21.844992 3.054401 0.000000 -42.703500 9.581031 -1.241829 1.590840 9.919278 -4.708885 -15.634463 1.738093 -0.178170 16.888911 -2.293168 -10.159126 -8.016744 -0.498800 0.000000 -15.159900
-10.143295 17.261045 0.721968 164.440010 86.781376 165.770632 -11.499162 4.661826 -0.108738 2.808462 14.358611 -6.155164 0.587382 2.835207 49.813710 2.163582 10.431132 19.851230 3.706700 0.000000 -40.778700 9.579658 -1.264487 1.518236 10.014663 -4.886526 -14.818414 1.747486 -0.139386 16.677732 -2.322998 -10.193045 -8.511391 -0.386701 0.000000 -14.833200
-10.002306 17.267265 0.755266 164.452494 86.726599 165.705952 -11.483419 4.538024 -0.195454 2.582383 14.529436 -7.379504 0.611955 2.903331 51.042906 2.255698 12.188664 17.733801 4.164700 0.000000 -39.055400 9.585147 -1.291435 1.447896 10.079240 -5.091867 -13.971450 1.756138 -0.095088 16.354313 -2.346111 -10.219692 -8.910474 -0.294200 0.000000 -14.786200
-9.861583 17.274930 0.787978 164.158809 86.685070 165.338357 -11.457671 4.413443 -0.274745 2.296189 14.699857 -8.570643 0.620583 2.957726 52.031637 2.339683 13.723798 15.558897 4.423300 -0.000000 -37.445700 9.596949 -1.323673 1.382869 10.115347 -5.306431 -13.098152 1.763660 -0.047126 15.930750 -2.361107 -10.235277 -9.206571 -0.223400 0.000000 -15.009700
-9.721085 17.283852 0.820096 163.471620 86.665421 164.580454 -11.420531 4.288147 -0.348259 1.948938 14.879469 -9.720446 0.612121 2.995925 52.775103 2.413951 15.019510 13.399591 4.501300 0.000000 -35.985001 9.617487 -1.361473 1.323895 10.116883 -5.523303 -12.206809 1.769650 0.001659 15.428123 -2.365303 -10.226748 -9.401175 -0.174000 0.000000 -15.484701
-9.580831 17.293729 0.851532 162.346745 86.675952 163.387445 -11.372152 4.162124 -0.419159 1.545670 15.080868 -10.825181 0.585892 3.017443 53.281715 2.475434 16.064664 11.294084 4.421500 0.000000 -34.485301 9.646899 -1.405287 1.272495 10.083804 -5.728699 -11.299472 1.773932 0.049452 14.860617 -2.358046 -10.189680 -9.499241 -0.145200 -0.000000 -16.181600
-9.440876 17.304214 0.882214 160.705481 86.719706 161.680225 -11.312473 4.034672 -0.489650 1.087628 15.307678 -11.880874 0.542709 3.021727 53.560617 2.523365 16.871382 9.292228 4.221800 0.000000 -33.006199 9.685826 -1.455037 1.228396 10.014242 -5.915131 -10.379491 1.776455 0.094362 14.244977 -2.339053 -10.118871 -9.512453 -0.134300 -0.000000 -17.056599
-9.301238 17.314936 0.912061 158.481544 86.794934 159.392906 -11.242497 3.905090 -0.561040 0.577051 15.560247 -12.889325 0.483896 3.009212 53.629543 2.556960 17.457352 7.412775 3.935700 -0.000000 -31.447600 9.733508 -1.510991 1.191130 9.910017 -6.079428 -9.451238 1.777669 0.135148 13.596051 -2.308923 -10.011668 -9.456473 -0.137600 0.000001 -18.051300
-9.162123 17.325424 0.941024 155.580724 86.897806 156.427393 -11.164201 3.771133 -0.637535 0.020725 15.838383 -13.842961 0.411584 2.980786 53.502642 2.576958 17.849920 5.675617 3.597300 0.000000 -29.902000 9.787814 -1.572777 1.159762 9.773495 -6.204654 -8.502824 1.776767 0.171419 12.913675 -2.271784 -9.883776 -9.344624 -0.152500 0.000000 -19.137600
-9.023506 17.335418 0.968896 151.956791 87.016337 152.740591 -11.080707 3.632062 -0.716188 -0.579701 16.129589 -14.751971 0.327993 2.937161 53.201943 2.584967 18.081133 4.072590 3.230700 0.000000 -28.269400 9.845608 -1.640930 1.132497 9.610650 -6.302564 -7.547051 1.775204 0.202759 12.214748 -2.228546 -9.731888 -9.197868 -0.174000 0.000000 -20.235800
-8.885410 17.344556 0.995554 147.557424 87.137882 148.279692 -10.996127 3.486220 -0.796686 -1.217648 16.422955 -15.617529 0.235447 2.879419 52.743406 2.583653 18.185703 2.597659 2.856300 -0.000000 -26.593199 9.902332 -1.715089 1.107487 9.427559 -6.370824 -6.582038 1.773117 0.229637 11.502096 -2.182872 -9.568733 -9.031691 -0.198800 0.000000 -21.304300
-8.747758 17.352715 1.020844 142.408986 87.248975 143.074092 -10.915426 3.333300 -0.875026 -1.886627 16.701702 -16.447189 0.136338 2.808713 52.141664 2.576735 18.201182 1.246436 2.490300 0.000000 -24.950000 9.952239 -1.794599 1.083232 9.233669 -6.414759 -5.614291 1.771241 0.253180 10.781756 -2.137550 -9.403497 -8.860297 -0.224301 -0.000000 -22.297600
-8.610676 17.359580 1.044767 136.483783 87.334820 137.091738 -10.842318 3.173818 -0.951588 -2.582052 16.956896 -17.233673 0.031599 2.726895 51.406430 2.567055 18.156518 -0.008005 2.136600 -0.000000 -23.284700 9.991779 -1.877296 1.055351 9.027831 -6.440662 -4.639364 1.769021 0.273764 10.058982 -2.094654 -9.243558 -8.695155 -0.248300 -0.000000 -23.206800
-8.473813 17.365306 1.067001 130.061376 87.390364 130.623610 -10.780602 3.010631 -1.016714 -3.294953 17.166340 -17.998507 -0.076627 2.635710 50.548340 2.559813 18.091685 -1.153603 1.808800 0.000000 -21.777601 10.015282 -1.960948 1.025134 8.826904 -6.457338 -3.679184 1.767882 0.294023 9.343517 -2.055299 -9.092890 -8.543950 -0.269600 0.000001 -23.989600
-8.337167 17.369771 1.087611 123.272917 87.408450 123.797768 -10.730124 2.846746 -1.069921 -4.020527 17.324022 -18.734708 -0.188196 2.537351 49.571718 2.557893 18.030389 -2.210079 1.505700 -0.000001 -20.379800 10.023127 -2.042041 0.988904 8.627689 -6.474550 -2.734161 1.767057 0.314236 8.644773 -2.019241 -8.950345 -8.411051 -0.287400 0.000000 -24.665000
-8.200586 17.373081 1.106511 116.399260 87.390390 116.898928 -10.689034 2.685473 -1.106987 -4.752414 17.420399 -19.448368 -0.302288 2.433479 48.482297 2.564585 17.996396 -3.180298 1.229200 -0.000000 -19.111699 10.016587 -2.117865 0.946370 8.434218 -6.501550 -1.817630 1.766781 0.335072 7.974942 -1.985384 -8.811487 -8.296872 -0.301500 0.000000 -25.252600
-8.063804 17.375423 1.123588 109.735694 87.343450 110.229837 -10.654259 2.528889 -1.122550 -5.482953 17.445652 -20.149888 -0.416669 2.324616 47.284845 2.583173 18.013647 -4.048188 0.986100 -0.000001 -18.084399 9.997939 -2.187495 0.899657 8.254157 -6.545198 -0.947680 1.767868 0.356930 7.345498 -1.952287 -8.670798 -8.198195 -0.312200 0.000000 -25.765100
-7.926702 17.376945 1.138810 103.444078 87.274523 103.955096 -10.622440 2.377737 -1.115017 -6.206936 17.398127 -20.842308 -0.529864 2.210906 45.985322 2.615210 18.093359 -4.816502 0.775401 0.000000 -17.249000 9.970575 -2.251004 0.850086 8.087794 -6.609976 -0.135727 1.770726 0.378936 6.767699 -1.918043 -8.520587 -8.109674 -0.320300 0.000000 -26.242401
